# xmcd CD database file
#
# Track frame offsets:
#	150
#	29992
#	56607
#	76712
#	94425
#	125152
#	150570
#	176140
#
# Disc length: 2786 seconds
#
# Revision: 0
# Processed by: cddbd v1.5.1PL0 Copyright (c) Steve Scherf et al.
# Submitted via: CDex 1.51
#
DISCID=6c0ae008
DTITLE=Shigeo Fukuda - TRIO'/Love is Here to Stay
DYEAR=2005
DGENRE=Jazz
TTITLE0=Bitter Sweet
TTITLE1=Just Be Happy My Love
TTITLE2=Mori's Waltz
TTITLE3=Shine
TTITLE4=Hajimari
TTITLE5=S.S.S.
TTITLE6=Momo
TTITLE7=Love Is Here To Stay
EXTD=YEAR: 2005
EXTT0=
EXTT1=
EXTT2=
EXTT3=
EXTT4=
EXTT5=
EXTT6=
EXTT7=
PLAYORDER=
